<?xml version="1.0" encoding="utf-8"?><svg viewBox="0 0 800 800" xmlns="http://www.w3.org/2000/svg" xmlns:xlink="http://www.w3.org/1999/xlink"><style>:root>svg{display:none}:root>svg:target{display:block}</style><svg fill="none" viewBox="0 0 57 65" id="1-icon" xmlns="http://www.w3.org/2000/svg"><g filter="url(#afilter0_d_318_15811)" fill="#fff"><path d="M48.688 56.875h-4.063v-6.094a10.168 10.168 0 00-10.156-10.156H22.28a10.168 10.168 0 00-10.156 10.156v6.094H8.062v-6.094a14.236 14.236 0 0114.22-14.218h12.187A14.236 14.236 0 0148.687 50.78v6.094zM6.031 8.125A2.031 2.031 0 004 10.156v18.282h4.063V10.155A2.031 2.031 0 006.03 8.125z"/><path d="M4 0v4.063h10.156V18.28a14.219 14.219 0 0028.438 0V4.063H52.75V0H4zm14.219 4.063H38.53v6.093H18.22V4.062zm10.156 24.375A10.156 10.156 0 0118.219 18.28V14.22H38.53v4.062a10.156 10.156 0 01-10.156 10.157z"/></g><defs><filter id="afilter0_d_318_15811" x="0" y="0" width="56.75" height="64.875" filterUnits="userSpaceOnUse" color-interpolation-filters="sRGB"><feFlood flood-opacity="0" result="BackgroundImageFix"/><feColorMatrix in="SourceAlpha" values="0 0 0 0 0 0 0 0 0 0 0 0 0 0 0 0 0 0 127 0" result="hardAlpha"/><feOffset dy="4"/><feGaussianBlur stdDeviation="2"/><feComposite in2="hardAlpha" operator="out"/><feColorMatrix values="0 0 0 0 0 0 0 0 0 0 0 0 0 0 0 0 0 0 0.25 0"/><feBlend in2="BackgroundImageFix" result="effect1_dropShadow_318_15811"/><feBlend in="SourceGraphic" in2="effect1_dropShadow_318_15811" result="shape"/></filter></defs></svg><svg fill="none" viewBox="0 0 14 15" id="Arrow" xmlns="http://www.w3.org/2000/svg"><path fill-rule="evenodd" clip-rule="evenodd" d="M1.632.376l8.861 11.113 1.218-5.378 1.74.395-1.785 7.883-8.084-.013.003-1.784 5.514.01L.237 1.487 1.632.376z" fill="#fff"/></svg><svg fill="none" viewBox="0 0 43 43" id="bar-chart" xmlns="http://www.w3.org/2000/svg"><g clip-path="url(#cclip0_318_15844)" filter="url(#cfilter0_d_318_15844)"><path d="M7.5 10.5H8a3.51 3.51 0 013.5 3.5v17.5A3.51 3.51 0 018 35h-.5A3.51 3.51 0 014 31.5V14a3.51 3.51 0 013.5-3.5zM21.5 0A3.51 3.51 0 0125 3.5v28a3.51 3.51 0 01-3.5 3.5 3.51 3.51 0 01-3.5-3.5v-28A3.51 3.51 0 0121.5 0zm14 20a3.51 3.51 0 013.5 3.5v8a3.51 3.51 0 01-3.5 3.5 3.51 3.51 0 01-3.5-3.5v-8a3.51 3.51 0 013.5-3.5z" fill="#fff"/></g><defs><clipPath id="cclip0_318_15844"><path fill="#fff" transform="translate(4)" d="M0 0h35v35H0z"/></clipPath><filter id="cfilter0_d_318_15844" x="0" y="0" width="43" height="43" filterUnits="userSpaceOnUse" color-interpolation-filters="sRGB"><feFlood flood-opacity="0" result="BackgroundImageFix"/><feColorMatrix in="SourceAlpha" values="0 0 0 0 0 0 0 0 0 0 0 0 0 0 0 0 0 0 127 0" result="hardAlpha"/><feOffset dy="4"/><feGaussianBlur stdDeviation="2"/><feComposite in2="hardAlpha" operator="out"/><feColorMatrix values="0 0 0 0 0 0 0 0 0 0 0 0 0 0 0 0 0 0 0.25 0"/><feBlend in2="BackgroundImageFix" result="effect1_dropShadow_318_15844"/><feBlend in="SourceGraphic" in2="effect1_dropShadow_318_15844" result="shape"/></filter></defs></svg><svg fill="none" viewBox="0 0 39 41" id="building-government" xmlns="http://www.w3.org/2000/svg"><g filter="url(#dfilter0_d_318_15847)"><path d="M24.605 2.918h-5.47c-.603 0-1.093.49-1.093 1.094v4.843c-4.947.707-8.75 4.962-8.75 10.105H8.198a3.281 3.281 0 00-3.281 3.28v8.75c0 .605.49 1.095 1.094 1.095h10.573a.364.364 0 00.364-.365v-4.375a.73.73 0 01.73-.73h3.645a.73.73 0 01.73.73v4.375c0 .202.163.365.364.365H32.99c.604 0 1.094-.49 1.094-1.094v-8.75a3.281 3.281 0 00-3.282-3.281H29.71c0-5.393-4.182-9.81-9.48-10.183V7.293h4.376a.73.73 0 00.729-.73V3.648a.73.73 0 00-.73-.729zm0 14.219v2.916a1.094 1.094 0 01-2.188 0v-2.916a1.094 1.094 0 012.188 0zm-5.47-1.094c.605 0 1.095.49 1.095 1.094v2.916a1.094 1.094 0 01-2.188 0v-2.916c0-.604.49-1.094 1.094-1.094zm-3.28 1.094v2.916a1.094 1.094 0 01-2.188 0v-2.916a1.094 1.094 0 012.188 0zm-5.47 5.468c.605 0 1.095.49 1.095 1.094v3.646a1.094 1.094 0 01-2.188 0V23.7c0-.604.49-1.094 1.094-1.094zM29.71 23.7v3.646a1.094 1.094 0 01-2.188 0V23.7a1.094 1.094 0 012.188 0z" fill="#CC9DFF"/></g><defs><filter id="dfilter0_d_318_15847" x="-2" y="0" width="43" height="43" filterUnits="userSpaceOnUse" color-interpolation-filters="sRGB"><feFlood flood-opacity="0" result="BackgroundImageFix"/><feColorMatrix in="SourceAlpha" values="0 0 0 0 0 0 0 0 0 0 0 0 0 0 0 0 0 0 127 0" result="hardAlpha"/><feOffset dy="4"/><feGaussianBlur stdDeviation="2"/><feComposite in2="hardAlpha" operator="out"/><feColorMatrix values="0 0 0 0 0 0 0 0 0 0 0 0 0 0 0 0 0 0 0.25 0"/><feBlend in2="BackgroundImageFix" result="effect1_dropShadow_318_15847"/><feBlend in="SourceGraphic" in2="effect1_dropShadow_318_15847" result="shape"/></filter></defs></svg><svg fill="none" viewBox="0 0 14 10" id="check" xmlns="http://www.w3.org/2000/svg"><path d="M13 1L4.75 9 1 5.364" stroke="#fff" stroke-width="2" stroke-linecap="round" stroke-linejoin="round"/></svg><svg fill="none" viewBox="0 0 35 43" id="child_2" xmlns="http://www.w3.org/2000/svg"><g clip-path="url(#fclip0_318_15854)" filter="url(#ffilter0_d_318_15854)"><path d="M12.438 4.922C12.438 2.204 14.704 0 17.5 0c2.796 0 5.063 2.204 5.063 4.922 0 2.718-2.267 4.922-5.063 4.922s-5.063-2.204-5.063-4.922zm17.903.094a2.296 2.296 0 00-3.182 0l-6.09 5.921h-7.137L7.841 5.016a2.296 2.296 0 00-3.182 0 2.145 2.145 0 000 3.093l6.654 6.469v18.235c0 1.208 1.007 2.187 2.25 2.187h1.124c1.243 0 2.25-.98 2.25-2.188v-7.656h1.125v7.657c0 1.208 1.008 2.187 2.25 2.187h1.125c1.243 0 2.25-.98 2.25-2.188V14.578l6.654-6.469a2.145 2.145 0 000-3.093z" fill="#B4E4FF"/></g><defs><clipPath id="fclip0_318_15854"><path fill="#fff" transform="translate(4)" d="M0 0h27v35H0z"/></clipPath><filter id="ffilter0_d_318_15854" x="0" y="0" width="35" height="43" filterUnits="userSpaceOnUse" color-interpolation-filters="sRGB"><feFlood flood-opacity="0" result="BackgroundImageFix"/><feColorMatrix in="SourceAlpha" values="0 0 0 0 0 0 0 0 0 0 0 0 0 0 0 0 0 0 127 0" result="hardAlpha"/><feOffset dy="4"/><feGaussianBlur stdDeviation="2"/><feComposite in2="hardAlpha" operator="out"/><feColorMatrix values="0 0 0 0 0 0 0 0 0 0 0 0 0 0 0 0 0 0 0.25 0"/><feBlend in2="BackgroundImageFix" result="effect1_dropShadow_318_15854"/><feBlend in="SourceGraphic" in2="effect1_dropShadow_318_15854" result="shape"/></filter></defs></svg><svg viewBox="0 0 18 18" id="close" xmlns="http://www.w3.org/2000/svg"><defs><path id="ga" d="M691.485 160.07l-1.414 1.415-7.071-7.071-7.071 7.071-1.414-1.414 7.07-7.071-7.07-7.071 1.414-1.415 7.07 7.071 7.072-7.07 1.414 1.414-7.07 7.07z"/></defs><use fill="#fff" xlink:href="#ga" transform="translate(-674 -144)"/></svg><svg fill="none" viewBox="0 0 65 68" id="computer_1" xmlns="http://www.w3.org/2000/svg"><g clip-path="url(#hclip0_318_15815)" filter="url(#hfilter0_d_318_15815)"><path d="M54.167 5.418H10.834a5.419 5.419 0 00-5.417 5.417v32.5a5.419 5.419 0 005.417 5.416h16.25v5.417h-8.125v5.417h27.083v-5.417h-8.125v-5.417h16.25a5.419 5.419 0 005.417-5.416v-32.5a5.419 5.419 0 00-5.417-5.417zm0 37.917H10.834v-32.5h43.333v32.5z" fill="#fff"/></g><defs><clipPath id="hclip0_318_15815"><path fill="#fff" d="M0 0h65v65H0z"/></clipPath><filter id="hfilter0_d_318_15815" x="-4" y="0" width="73" height="73" filterUnits="userSpaceOnUse" color-interpolation-filters="sRGB"><feFlood flood-opacity="0" result="BackgroundImageFix"/><feColorMatrix in="SourceAlpha" values="0 0 0 0 0 0 0 0 0 0 0 0 0 0 0 0 0 0 127 0" result="hardAlpha"/><feOffset dy="4"/><feGaussianBlur stdDeviation="2"/><feComposite in2="hardAlpha" operator="out"/><feColorMatrix values="0 0 0 0 0 0 0 0 0 0 0 0 0 0 0 0 0 0 0.25 0"/><feBlend in2="BackgroundImageFix" result="effect1_dropShadow_318_15815"/><feBlend in="SourceGraphic" in2="effect1_dropShadow_318_15815" result="shape"/></filter></defs></svg><svg viewBox="0 -3.71 75.17 75.17" id="like-news" xmlns="http://www.w3.org/2000/svg"><path data-name="Path 1" d="M37.585 66.244s22.263-15.459 31.959-30.318c9.6-14.708.354-31.054-10.533-33.8-14.457-3.65-21.426 10.478-21.426 10.478S30.617-1.524 16.16 2.126C5.272 4.874-3.972 21.22 5.626 35.926c9.696 14.859 31.959 30.318 31.959 30.318z" fill="none" stroke="#0c2c67" stroke-linejoin="round" stroke-width="3"/></svg><svg viewBox="0 0 48 48" id="menu" xmlns="http://www.w3.org/2000/svg"><path d="M6 36v-3h36v3zm0-10.5v-3h36v3zM6 15v-3h36v3z"/></svg><svg id="school-logo" fill="#fff" data-name="Layer 1" viewBox="0 0 122.88 119.49" xmlns="http://www.w3.org/2000/svg"><defs><style>.kcls-1{fill-rule:evenodd}</style></defs><path class="kcls-1" d="M5.48 43.81L61.3 0l56.1 43.81zm37.64 46.05l.12-20.45h-2.07v25.78a37.37 37.37 0 019.32-1.12 27 27 0 018.89 1.4 19.14 19.14 0 00-6.09-3.31 22.29 22.29 0 00-8.81-.94 1.25 1.25 0 01-1.36-1.14.81.81 0 010-.22zm33.41-25.8a17.13 17.13 0 00-8 1 11.76 11.76 0 00-5.92 4.63v23.15a29.4 29.4 0 016.55-3.39 16.74 16.74 0 017.41-1.13V64.06zm3 2.83h3.41a1.26 1.26 0 011.25 1.26v28.92a1.25 1.25 0 01-1.25 1.26 1.1 1.1 0 01-.41-.07 39 39 0 00-10.43-1.69A24.15 24.15 0 0062 98.63a1.38 1.38 0 01-1.43 0 24.19 24.19 0 00-10.09-2.06 39 39 0 00-10.42 1.69 1.14 1.14 0 01-.41.07 1.26 1.26 0 01-1.25-1.25V68.15a1.27 1.27 0 011.26-1.26h3.58V62.7a1.25 1.25 0 011-1.22 19.9 19.9 0 0110.84.83 13.93 13.93 0 016.25 4.56 14.54 14.54 0 016.25-4.36 21.91 21.91 0 0110.83-1 1.26 1.26 0 011.08 1.24v4.19zM63.79 95.28a26.87 26.87 0 018.32-1.21 37 37 0 019.32 1.12V69.41h-1.91V90a1.25 1.25 0 01-1.25 1.26 1.36 1.36 0 01-.29 0 16 16 0 00-8 .85 27.88 27.88 0 00-6.17 3.23zm-3.73-2.69v-22.9a11.07 11.07 0 00-5.84-4.8 15.52 15.52 0 00-8-.89l-.14 24.4a21.84 21.84 0 018 1.14 21.51 21.51 0 016 3zM61.44 21a5.68 5.68 0 11-5.68 5.68A5.68 5.68 0 0161.44 21zm0-6.05a11.73 11.73 0 11-11.73 11.74A11.73 11.73 0 0161.44 15zM6.63 103.73h6v-1a3.79 3.79 0 013.78-3.78V58.19H8.89v-8.26h104.8v8.26h-7.48V98.9a3.79 3.79 0 013.78 3.78v1h6.24a2.42 2.42 0 012.4 2.41v5.53h1.82a2.42 2.42 0 012.41 2.4v3a2.44 2.44 0 01-2.41 2.41H2.41A2.43 2.43 0 010 117.08v-3a2.41 2.41 0 012.41-2.4h1.82v-5.53a2.42 2.42 0 012.41-2.41zm27.24 0h54.87v-1-.45A3.79 3.79 0 0192.4 99V58.19H30.18V98.9a3.78 3.78 0 013.69 3.78v1z"/></svg><svg fill="none" viewBox="0 0 43 43" id="shapes" xmlns="http://www.w3.org/2000/svg"><g clip-path="url(#lclip0_318_15849)" filter="url(#lfilter0_d_318_15849)"><path d="M12.75 17.5a8.75 8.75 0 100 17.5 8.75 8.75 0 000-17.5zm25.908-3.75l-7.31-12.5a2.547 2.547 0 00-4.384 0l-7.31 12.5c-.973 1.666.245 3.75 2.194 3.75h14.617c1.948 0 3.167-2.084 2.193-3.75zm-1.846 5.938H25.875a2.187 2.187 0 00-2.188 2.187v10.938A2.188 2.188 0 0025.875 35h10.937A2.187 2.187 0 0039 32.812V21.876a2.187 2.187 0 00-2.188-2.187z" fill="#F5FFC0"/></g><defs><clipPath id="lclip0_318_15849"><path fill="#fff" transform="translate(4)" d="M0 0h35v35H0z"/></clipPath><filter id="lfilter0_d_318_15849" x="0" y="0" width="43" height="43" filterUnits="userSpaceOnUse" color-interpolation-filters="sRGB"><feFlood flood-opacity="0" result="BackgroundImageFix"/><feColorMatrix in="SourceAlpha" values="0 0 0 0 0 0 0 0 0 0 0 0 0 0 0 0 0 0 127 0" result="hardAlpha"/><feOffset dy="4"/><feGaussianBlur stdDeviation="2"/><feComposite in2="hardAlpha" operator="out"/><feColorMatrix values="0 0 0 0 0 0 0 0 0 0 0 0 0 0 0 0 0 0 0.25 0"/><feBlend in2="BackgroundImageFix" result="effect1_dropShadow_318_15849"/><feBlend in="SourceGraphic" in2="effect1_dropShadow_318_15849" result="shape"/></filter></defs></svg><svg fill="none" viewBox="0 0 43 43" id="star-rate" xmlns="http://www.w3.org/2000/svg"><g clip-path="url(#mclip0_318_15851)" filter="url(#mfilter0_d_318_15851)"><path d="M26.897 12.586L23.632 1.615c-.644-2.153-3.62-2.153-4.242 0l-3.287 10.971H6.22c-2.154 0-3.043 2.833-1.288 4.103l8.084 5.893-3.176 10.45c-.644 2.108 1.755 3.808 3.465 2.47l8.195-6.346 8.195 6.37c1.71 1.337 4.109-.363 3.465-2.471l-3.176-10.45 8.084-5.893c1.755-1.293.866-4.103-1.288-4.103h-9.883v-.023z" fill="#FFC6C9"/></g><defs><clipPath id="mclip0_318_15851"><path fill="#fff" transform="translate(4)" d="M0 0h35v35H0z"/></clipPath><filter id="mfilter0_d_318_15851" x="0" y="0" width="43" height="43" filterUnits="userSpaceOnUse" color-interpolation-filters="sRGB"><feFlood flood-opacity="0" result="BackgroundImageFix"/><feColorMatrix in="SourceAlpha" values="0 0 0 0 0 0 0 0 0 0 0 0 0 0 0 0 0 0 127 0" result="hardAlpha"/><feOffset dy="4"/><feGaussianBlur stdDeviation="2"/><feComposite in2="hardAlpha" operator="out"/><feColorMatrix values="0 0 0 0 0 0 0 0 0 0 0 0 0 0 0 0 0 0 0.25 0"/><feBlend in2="BackgroundImageFix" result="effect1_dropShadow_318_15851"/><feBlend in="SourceGraphic" in2="effect1_dropShadow_318_15851" result="shape"/></filter></defs></svg><svg fill="none" viewBox="0 0 36 36" id="subtract" xmlns="http://www.w3.org/2000/svg"><path fill-rule="evenodd" clip-rule="evenodd" d="M9.175 10.077C6.61 11.25 1.215 12.44.146 7.802-.923 3.163 4.134 1.14 6.796.707c5.687-.655 17.911-2.028 24.738 2.627a10.56 10.56 0 012.13 2.27c3.932 6.432 1.923 18.087.962 23.664l-.054.318c-.578 2.608-2.895 7.499-7.542 6.198-4.648-1.3-3.16-6.57-1.835-9.043 1.223-2.337 2.34-8.03 1.63-8.738-.305-.305-2.038-1.93-7.745 7.315-4.232 6.855-9.374 5.28-11.889 3.315l-.581-.572c-1.982-2.42-3.825-7.895 3.68-11.896 9.629-5.132 8.079-6.921 7.787-7.238-.676-.735-6.48.068-8.902 1.15z" fill="#fff"/></svg><svg fill="none" viewBox="0 0 43 43" id="user-graduate" xmlns="http://www.w3.org/2000/svg"><g clip-path="url(#oclip0_318_15842)" filter="url(#ofilter0_d_318_15842)"><path d="M28.953 21.918L21.5 28.439l-7.453-6.521C8.46 22.13 4 26.128 4 31.064v.657C4 33.532 5.68 35 7.75 35h27.5c2.07 0 3.75-1.469 3.75-3.28v-.657c0-4.935-4.46-8.934-10.047-9.146zM5.063 5.457l.5.102v3.993c-.547.287-.938.786-.938 1.387 0 .574.36 1.053.867 1.347l-1.219 4.259c-.132.471.165.957.594.957h3.266c.43 0 .726-.486.594-.957l-1.22-4.26c.509-.293.868-.772.868-1.346 0-.601-.39-1.1-.938-1.387V5.956l5.157 1.087C11.922 8.219 11.5 9.53 11.5 10.939c0 4.833 4.477 8.75 10 8.75s10-3.917 10-8.75c0-1.408-.414-2.72-1.094-3.896l7.524-1.586c1.422-.301 1.422-1.853 0-2.154L23.055.16a7.645 7.645 0 00-3.102 0L5.063 3.297c-1.415.3-1.415 1.859 0 2.16z" fill="#ACFFD7"/></g><defs><clipPath id="oclip0_318_15842"><path fill="#fff" transform="translate(4)" d="M0 0h35v35H0z"/></clipPath><filter id="ofilter0_d_318_15842" x="0" y="0" width="43" height="43" filterUnits="userSpaceOnUse" color-interpolation-filters="sRGB"><feFlood flood-opacity="0" result="BackgroundImageFix"/><feColorMatrix in="SourceAlpha" values="0 0 0 0 0 0 0 0 0 0 0 0 0 0 0 0 0 0 127 0" result="hardAlpha"/><feOffset dy="4"/><feGaussianBlur stdDeviation="2"/><feComposite in2="hardAlpha" operator="out"/><feColorMatrix values="0 0 0 0 0 0 0 0 0 0 0 0 0 0 0 0 0 0 0.25 0"/><feBlend in2="BackgroundImageFix" result="effect1_dropShadow_318_15842"/><feBlend in="SourceGraphic" in2="effect1_dropShadow_318_15842" result="shape"/></filter></defs></svg><svg viewBox="0 0 32 32" id="views-news" xmlns="http://www.w3.org/2000/svg"><path d="M30.564 15.506c-9.59-10.957-19.543-10.957-29.129 0a.748.748 0 00.001.989l-.001-.001c4.793 5.479 9.693 8.256 14.563 8.256h.001c4.869 0 9.771-2.777 14.564-8.256.116-.131.186-.304.186-.494s-.07-.363-.187-.495l.001.001zM3.004 16c8.704-9.626 17.291-9.622 25.992 0-8.703 9.621-17.291 9.621-25.992 0zM16 11.25A4.75 4.75 0 1020.75 16 4.756 4.756 0 0016 11.25zm0 8A3.25 3.25 0 1119.25 16 3.254 3.254 0 0116 19.25z"/></svg></svg>